# xmcd
#
# Track frame offsets:
#	150
#	14780
#	34172
#	51945
#	75337
#	90767
#	103005
#	125100
#	147520
#	164475
#	180012
#	192167
#	213475
#	230070
#	242970
#
# Disc length: 3504 seconds
#
# Revision: 1
# Processed by: cddbd v1.5.2PL0 Copyright (c) Steve Scherf et al.
# Submitted via: audiograbber 1.83.01
#
DISCID=cd0dae0f
DTITLE=RTL Big Band - Blues Party
DYEAR=1994
DGENRE=Big Band
TTITLE0=I feel good
TTITLE1=You can leave your hat on
TTITLE2=Every breath you take
TTITLE3=Georgia
TTITLE4=Let the good times roll
TTITLE5=I ain't got you
TTITLE6=Your song
TTITLE7=Shoot your shot
TTITLE8=Pep talk
TTITLE9=I can't stop loving you
TTITLE10=RTL blues
TTITLE11=Mustang Sally
TTITLE12=You're the one
TTITLE13=Since I met you baby
TTITLE14=The last time I said goodbye
EXTD=
EXTT0=
EXTT1=
EXTT2=
EXTT3=
EXTT4=
EXTT5=
EXTT6=
EXTT7=
EXTT8=
EXTT9=
EXTT10=
EXTT11=
EXTT12=
EXTT13=
EXTT14=
PLAYORDER=
